<mxfile host="app.diagrams.net" modified="2024-09-08T14:23:28.856Z" agent="Mozilla/5.0 (Windows NT 10.0; Win64; x64) AppleWebKit/537.36 (KHTML, like Gecko) Chrome/128.0.0.0 Safari/537.36" version="24.6.4" etag="kLloTkAAVM069D2zUuDr" type="github">
  <diagram name="Page-1" id="l7oIzFJZzcnThmX-o-Os">
    <mxGraphModel>
      <root>
        <mxCell id="0" />
        <mxCell id="1" parent="0" />
      </root>
    </mxGraphModel>
  </diagram>
</mxfile>
